<svg width="99" height="99" viewBox="0 0 99 99" fill="none" xmlns="http://www.w3.org/2000/svg">
<path d="M82.5 12.375H16.5C15.406 12.375 14.3568 12.8096 13.5832 13.5832C12.8096 14.3568 12.375 15.406 12.375 16.5V82.5C12.375 83.594 12.8096 84.6432 13.5832 85.4168C14.3568 86.1904 15.406 86.625 16.5 86.625H82.5C83.594 86.625 84.6432 86.1904 85.4168 85.4168C86.1904 84.6432 86.625 83.594 86.625 82.5V16.5C86.625 15.406 86.1904 14.3568 85.4168 13.5832C84.6432 12.8096 83.594 12.375 82.5 12.375ZM34.3984 75.6401H23.3764V40.2064H34.3984V75.6401ZM28.8874 35.3678C27.1938 35.3678 25.5697 34.695 24.3721 33.4975C23.1746 32.3 22.5019 30.6758 22.5019 28.9823C22.5019 27.2887 23.1746 25.6645 24.3721 24.467C25.5697 23.2695 27.1938 22.5968 28.8874 22.5968C30.5809 22.5968 32.2051 23.2695 33.4026 24.467C34.6001 25.6645 35.2729 27.2887 35.2729 28.9823C35.2729 30.6758 34.6001 32.3 33.4026 33.4975C32.2051 34.695 30.5809 35.3678 28.8874 35.3678ZM75.6442 75.6401H64.6346V58.41C64.6346 54.3015 64.5604 49.0174 58.9091 49.0174C53.1754 49.0174 52.305 53.4971 52.305 58.1213V75.6442H41.3036V40.2105H51.8636V45.0532H52.0162C53.4806 42.2689 57.0776 39.3319 62.4277 39.3319C73.5817 39.3319 75.6401 46.6661 75.6401 56.2114L75.6442 75.6401Z" fill="#001AFF"/>
</svg>
